<?xml version="1.0" encoding="utf-8"?>
<!-- Generator: Adobe Illustrator 19.0.0, SVG Export Plug-In . SVG Version: 6.00 Build 0)  -->
<svg version="1.1" id="Layer_1" xmlns="http://www.w3.org/2000/svg" xmlns:xlink="http://www.w3.org/1999/xlink" x="0px" y="0px"
	 viewBox="0 0 960 560" style="enable-background:new 0 0 960 560;" xml:space="preserve">
<style type="text/css">
	.st0{fill-rule:evenodd;clip-rule:evenodd;fill:#E8E8E8;}
	.st1{fill-rule:evenodd;clip-rule:evenodd;fill:#B0B0B0;}
	.st2{fill:#F58953;}
	.st3{fill-rule:evenodd;clip-rule:evenodd;fill:#112129;}
</style>
<g>
	<g>
		<path class="st0" d="M486.3,311.7c5.1-1.3,10.1-2.9,15.1-5.2c0.2,0.4,0.5,0.7,0.5,1c0,0.3-0.2,0.7-0.5,1c-0.3,0.3-0.6,0.5-1,0.6
			c-3.6,1.9-7.2,3.7-11.3,4.1c-0.6,0.1-1.1,0-1.7,0C487,313.2,486.8,312.9,486.3,311.7z"/>
		<path class="st0" d="M500.8,302.9c0.5,1,0,1.5-0.6,1.8c-1,0.6-2,1.2-3.1,1.6c-3.2,1.1-6.4,2.1-9.6,3.2c-0.4,0.1-0.8,0.3-1.1,0.1
			c-0.4-0.2-0.8-0.6-1-0.9c-0.2-0.5,0.1-0.9,0.6-1.1c0.4-0.1,0.7-0.2,1.1-0.3c3.9-1,7.8-2,11.5-3.7
			C499.3,303.2,500.1,303,500.8,302.9z"/>
		<path class="st0" d="M488.5,315.8c2.9-0.9,5.3-1.5,7.6-2.4c2.2-0.8,4.4-1.8,6.7-2.8c0,0.5,0.2,0.9,0.1,1c-0.6,1-1.4,1.9-2.5,2.2
			c-2.7,0.9-5.3,1.8-8,2.5c-0.9,0.3-1.9,0.3-2.9,0.3C489.2,316.7,489,316.2,488.5,315.8z"/>
		<path class="st1" d="M501.7,316.3c-0.1,0.6,0,1.3-0.3,1.5c-2.3,1.8-4.9,2.6-7.8,2.4c-0.2,0-0.4-0.2-0.5-0.3
			c-0.1-0.2-0.2-0.5-0.3-0.8C494.7,318,499.3,316.5,501.7,316.3z"/>
		<path class="st2" d="M498.3,265.6c-6.8-4.3-14-5.4-21.6-2.1c-4.2,1.8-7.3,4.6-9,8.9c-0.7,1.7-1.1,3.5-1.5,5.3
			c-1.3,5.9,0.6,10.9,5,14.9c0.9,0.9,1.9,1.6,2.9,2.4c2.6,2,5.3,3.9,8.3,5.2c0.8,0.3,1.4,0.7,2,1.3c0.3,0.6,0.6,1.2,1,1.6
			c0.1,0.2,0.1,0.4,0.2,0.6c0.1,0.5,0.4,1,0.6,1.5c0.9,0.1,11.3-3.7,11.5-4c0.3-0.4,0.5-0.9,0.4-1.3c-0.3-2.4,0.4-4.4,1.9-6.2
			c3.4-4.2,5.1-9.1,5.4-14.4C505.6,273.6,503.4,268.8,498.3,265.6z"/>
	</g>
	<path class="st3" d="M503.6,314.6c0.7,3.3,0.8,4.4-2.8,6.2c-1.8,0.9-3.7,1.3-5.6,1.4c-1.9,0.1-3.4-0.5-4-2.6c0-0.2-0.2-0.3-0.4-0.5
		c-0.2,0-0.5-0.1-0.8-0.1c-1.7-0.1-2.8-0.8-3-2.5c-0.1-0.8-0.5-1.4-1.1-1.9c-1-0.8-1.5-2-1.6-3.3c-0.2-1.6-0.6-3.2-0.1-4.9
		c0.5-1.7-0.5-3.2-2.4-4.1c-4-1.9-7.5-4.4-10.9-7.2c-2.5-2-4.3-4.4-5.6-7.3c-1.2-2.6-1.7-5.3-1.3-8.2c0.2-1.7,0.6-3.4,1-5.1
		c1.7-6.4,5.7-10.8,12-13.2c9.2-3.6,17.5-1.7,25.1,4.2c4.1,3.2,6,7.7,6.1,13c0,5.5-1.4,10.5-4.5,15.1c-0.5,0.7-1.2,1.3-1.6,2
		c-0.5,0.8-1.1,1.6-1.3,2.5c-0.3,1.1-0.3,2.3,1.1,2.9c1,0.4,1.2,1.5,1.3,2.4c0.1,1,0.3,1.8,0.7,2.7c0.7,1.6,1.1,3.3,1.5,4.9
		c0.2,0.8,0,1.5-0.5,2.2C504.3,313.6,504,314.1,503.6,314.6z M488.3,273.9c0.3-0.3,0.5-0.5,0.8-0.7c3.6-2.6,7.3-1.4,8.8,2.8
		c0.7,1.8,0.5,3.6-0.1,5.4c-0.6,1.6-1.2,3.3-1.7,4.9c-1.6,5.2-0.9,10.3,0.5,15.5c0.5-0.2,0.9-0.3,1.1-0.5c0.3-0.4,0.5-0.9,0.4-1.3
		c-0.3-2.4,0.4-4.4,1.9-6.2c3.4-4.2,5.1-9.1,5.4-14.4c0.2-5.9-2-10.6-7-13.8c-6.8-4.3-14-5.4-21.6-2.1c-4.2,1.8-7.3,4.6-9,8.9
		c-0.7,1.7-1.1,3.5-1.5,5.3c-1.3,5.9,0.6,10.9,5,14.9c0.9,0.9,1.9,1.6,2.9,2.4c2.6,2,5.3,3.9,8.3,5.2c1.6,0.7,2.8,1.7,3.1,3.5
		c0.1,0.5,0.4,1,0.6,1.5c1,0.2,1.7,0,2.2-0.8c-0.4-2.1-1-4.1-2.5-5.7c-1.4-1.5-2.8-3-4.2-4.4c-1.4-1.3-3-2.4-4.5-3.7
		c-2-1.7-3.7-3.7-4.6-6.2c-1-2.9-0.1-5.1,2.7-6.4c1.5-0.7,3-0.7,4.4-0.5C483.5,273.5,484.6,273,488.3,273.9z M478.7,279.8
		c-1.4-0.5-2.2,0-3.1,0.5c-1.3,0.7-1.6,1.5-1.3,2.9c0.3,1.3,0.8,2.6,1.8,3.6c1,1.1,2,2.1,3.1,3c1.7,1.5,3.6,2.9,5.3,4.5
		c2.5,2.3,4.5,5.1,5.4,8.4c0.2,0.5,0.5,1,0.7,1.4c1.3-0.4,2.5-0.8,3.8-1.2c-0.1-0.8-0.1-1.4-0.3-2.1c-0.3-1.4-0.6-2.8-0.8-4.3
		c-0.5-3.8-0.5-7.5,0.7-11.2c0.6-1.7,1.1-3.5,1.7-5.2c0.6-1.7,0.3-3.3-0.7-4.7c-0.6-0.9-1.5-1.5-2.7-1.5c-1.2,0-2,0.6-2.4,1.8
		c0.4,0.9,0.9,1.8,1.3,2.7c0.4,1,0.7,2,0.9,3c0.2,1-0.1,1.9-1,2.5c-0.9,0.6-2.1,0.5-3-0.2c-1-0.7-1.5-1.8-1.5-3c0-1,0.1-1.9,0.2-2.9
		c0-0.5,0.1-1.1,0.1-1.5c-0.7-0.7-1.4-0.8-2-0.5c-1.4,0.7-2.6,1.6-3.2,3.2c0.5,0.6,1.1,1.2,1.4,1.9c0.6,1.2,1.2,2.5,1.4,3.8
		c0.3,1.6-1.3,2.8-2.8,2.1c-0.8-0.4-1.4-1-2-1.6C478.6,283.5,478.4,281.7,478.7,279.8z M486.3,311.7c0.4,1.2,0.6,1.6,1.1,1.6
		c0.6,0.1,1.1,0.1,1.7,0c4.1-0.5,7.7-2.3,11.3-4.1c0.3-0.2,0.7-0.4,1-0.6c0.2-0.3,0.5-0.6,0.5-1c0-0.3-0.3-0.6-0.5-1
		C496.5,308.8,491.5,310.3,486.3,311.7z M500.8,302.9c-0.7,0.2-1.4,0.3-2.1,0.6c-3.7,1.7-7.6,2.6-11.5,3.7c-0.4,0.1-0.7,0.2-1.1,0.3
		c-0.5,0.2-0.8,0.7-0.6,1.1c0.2,0.4,0.6,0.8,1,0.9c0.3,0.1,0.8,0,1.1-0.1c3.2-1,6.4-2.1,9.6-3.2c1.1-0.4,2.1-1,3.1-1.6
		C500.7,304.3,501.3,303.8,500.8,302.9z M488.5,315.8c0.4,0.4,0.7,1,1,1c1,0,1.9,0,2.9-0.3c2.7-0.8,5.3-1.7,8-2.5
		c1.2-0.4,1.9-1.2,2.5-2.2c0.1-0.2,0-0.5-0.1-1c-2.3,1-4.4,2-6.7,2.8C493.8,314.3,491.4,314.9,488.5,315.8z M501.7,316.3
		c-2.4,0.3-7,1.8-8.8,2.8c0.1,0.3,0.1,0.5,0.3,0.8c0.1,0.2,0.3,0.3,0.5,0.3c2.9,0.2,5.5-0.6,7.8-2.4
		C501.7,317.6,501.6,316.8,501.7,316.3z M489.4,281.8c0.6-1.6,0.6-1.6-0.8-2.3C489,280.3,489.2,281,489.4,281.8z M482.2,283.8
		c-0.2-1.1-0.6-1.6-1.4-2.2C480.9,282.6,481,283.4,482.2,283.8z"/>
	<path class="st3" d="M482,250.1c-0.5-0.7-1-1.2-1.1-1.6c-0.3-1.3-0.6-2.7-0.6-4c-0.1-1.6,0.1-3.3,0.1-4.9c0-0.5,0.2-0.9,0.4-1.4
		c0.2-0.5,1.2-0.5,1.4,0c0.2,0.3,0.4,0.7,0.4,1.1c0,3.2-0.1,6.4-0.1,9.6C482.6,249,482.4,249.3,482,250.1z"/>
	<path class="st3" d="M501.6,251.3c0.1-1,0.1-1.5,0.2-1.9c0.6-1.6,1.6-3.1,2.8-4.3c0.2-0.3,0.6-0.4,1-0.6c0.5-0.2,1.3,0.4,1.2,0.9
		c0,0.4-0.1,0.8-0.3,1.1c-1,1.4-2.1,2.7-3.2,4C503,250.8,502.4,250.9,501.6,251.3z"/>
	<path class="st3" d="M470.1,252.7c-0.6,0.1-0.8,0.2-0.9,0.1c-2-1.3-2.9-3.3-3.4-5.4c-0.2-0.7,0.2-1.2,0.7-1.4
		c0.7-0.2,1.2,0.1,1.4,0.7C468.8,248.6,469.5,250.5,470.1,252.7z"/>
	<path class="st3" d="M459,264c-2.5,0.2-4.2-1-5.7-2.6c-0.1-0.1-0.1-0.2-0.1-0.3c-0.1-0.5-0.2-1,0.3-1.3c0.3-0.2,0.8-0.3,1.1-0.1
		c1.7,0.9,3.3,2,4.4,3.7C458.9,263.5,458.9,263.6,459,264z"/>
</g>
</svg>
