<?xml version="1.0" encoding="utf-8"?>
<!-- Generator: Adobe Illustrator 19.0.0, SVG Export Plug-In . SVG Version: 6.00 Build 0)  -->
<svg version="1.1" id="Layer_1" xmlns="http://www.w3.org/2000/svg" xmlns:xlink="http://www.w3.org/1999/xlink" x="0px" y="0px"
	 viewBox="0 0 960 560" style="enable-background:new 0 0 960 560;" xml:space="preserve">
<style type="text/css">
	.st0{fill-rule:evenodd;clip-rule:evenodd;fill:#8AB631;}
	.st1{fill-rule:evenodd;clip-rule:evenodd;fill:#112129;}
</style>
<g>
	<path class="st0" d="M516.4,247.2c0,0.6,0.1,0.8,0,1c-2.5,6.1-4.9,12.2-7.4,18.3c-1.7,4-3.5,7.9-5.4,11.9
		c-2.7,5.7-5.6,11.4-8.4,17.1c-0.3,0.6-0.6,1.1-0.9,1.6c-0.2,0-0.3,0-0.4,0c-0.1,0-0.2,0-0.3-0.1c-5.4-5.3-10.7-10.6-16.2-16
		c0.3-0.3,0.7-0.8,1.2-1.2c7.7-6.5,15.3-13.1,22.6-20.1c4.4-4.2,9.1-8,13.9-11.6C515.4,247.8,515.8,247.6,516.4,247.2z"/>
	<path class="st0" d="M511.7,244.3c-3.1,2-6.2,3.1-9.1,4.4c-3.1,1.4-6.2,2.7-9.2,4.2c-2.9,1.4-5.9,3-8.7,4.5c-3,1.6-5.9,3.2-8.9,4.9
		c-2.9,1.6-5.7,3.2-8.5,4.8c-0.8-0.2-1.5-0.3-2.2-0.5c-2.4-2.9-4.8-5.9-7.3-8.8c-2.5-2.8-5.1-5.6-7.8-8.5c1.3-0.7,2.4-0.8,3.5-0.8
		c5.9,0,11.8-0.7,17.7-1.3c3.2-0.3,6.3-0.4,9.5-0.7c9.9-0.8,19.8-1.6,29.7-2.4C510.6,244.1,510.9,244.2,511.7,244.3z"/>
	<path class="st0" d="M467,270c1.2-0.8,2.3-1.7,3.5-2.3c13.4-7.7,27.2-14.6,41.4-20.7c0.3-0.1,0.6-0.2,0.9-0.3
		c0.2,0.7-0.4,0.9-0.8,1.2c-6,4.6-11.5,9.7-17,14.8c-5.9,5.5-12,10.8-18,16.1c-0.4,0.4-0.8,0.8-1.2,1c-2.2,0.5-3.2,2.3-4.2,4
		c-0.7,1.2-1.3,2.4-2,3.6c-0.2,0.3-0.5,0.6-1,1.3C467.7,282.2,467.4,276.1,467,270z"/>
	<path class="st0" d="M477.2,284.2c-1.7,0.9-3.3,1.8-4.9,2.7c-0.4-1.1,0.3-1.7,0.7-2.4c0.5-0.8,1.1-1.5,1.8-2.2
		c0.2-0.2,0.9-0.1,1.1,0.1C476.4,282.9,476.7,283.5,477.2,284.2z"/>
	<path class="st1" d="M448.8,247.1c2.4-0.2,4.9-0.4,7.3-0.7c3.5-0.3,7-0.6,10.4-0.9c3.6-0.3,7.2-0.7,10.8-1
		c7.6-0.6,15.2-1.2,22.8-1.8c5-0.4,9.9-0.9,14.9-1.4c1.2-0.1,2.3-0.3,3.5-0.4c0.8-0.1,1.6,0,2.7,0c-0.1,0.8,0,1.5-0.2,2
		c-0.4,1.1-0.9,2.2-1.3,3.2c-2.5,6.3-5,12.6-7.6,18.9c-1.7,4.1-3.4,8.2-5.3,12.2c-3.1,6.6-6.4,13.1-9.7,19.7
		c-0.5,1.1-0.9,2.2-2.5,2.4c-2.9-1.6-5.2-4.3-7.8-6.6c-2.6-2.3-5.1-4.8-7.7-7.2c-0.8,0.3-1.5,0.5-2.1,0.9c-1.6,1-3.2,2.1-4.7,3.2
		c-0.8,0.6-1.5,1.2-2.3,1.8c-2.3,1.7-3.3,1.3-3.6-1.7c-0.5-5.8-1-11.6-1.3-17.4c-0.1-1.9-0.6-3.4-1.9-4.8c-4.1-4.5-8-9-12-13.5
		c-0.8-1-1.6-1.9-2.5-2.9C447.6,249.9,447.6,248.7,448.8,247.1z M516.4,247.2c-0.6,0.4-1,0.6-1.3,0.9c-4.8,3.6-9.5,7.4-13.9,11.6
		c-7.3,7-14.9,13.6-22.6,20.1c-0.5,0.4-0.8,0.9-1.2,1.2c5.5,5.4,10.8,10.7,16.2,16c0.1,0.1,0.2,0.1,0.3,0.1c0.1,0,0.2,0,0.4,0
		c0.3-0.5,0.6-1,0.9-1.6c2.8-5.7,5.6-11.4,8.4-17.1c1.9-3.9,3.7-7.9,5.4-11.9c2.6-6,5-12.2,7.4-18.3
		C516.5,248,516.4,247.8,516.4,247.2z M511.7,244.3c-0.7-0.1-1-0.1-1.3-0.1c-9.9,0.8-19.8,1.6-29.7,2.4c-3.2,0.3-6.3,0.3-9.5,0.7
		c-5.9,0.6-11.8,1.3-17.7,1.3c-1.1,0-2.2,0.1-3.5,0.8c2.7,2.9,5.3,5.6,7.8,8.5c2.5,2.9,4.9,5.8,7.3,8.8c0.7,0.2,1.4,0.3,2.2,0.5
		c2.8-1.6,5.7-3.2,8.5-4.8c3-1.7,5.9-3.3,8.9-4.9c2.9-1.5,5.8-3.1,8.7-4.5c3-1.5,6.2-2.8,9.2-4.2
		C505.5,247.3,508.6,246.2,511.7,244.3z M467,270c0.4,6.1,0.8,12.2,1.6,18.7c0.6-0.7,0.8-1,1-1.3c0.7-1.2,1.2-2.5,2-3.6
		c1.1-1.7,2-3.5,4.2-4c0.5-0.1,0.9-0.6,1.2-1c6-5.4,12.1-10.7,18-16.1c5.5-5.1,11-10.2,17-14.8c0.4-0.3,0.9-0.5,0.8-1.2
		c-0.3,0.1-0.6,0.1-0.9,0.3c-14.2,6.1-28,13-41.4,20.7C469.3,268.3,468.2,269.1,467,270z M477.2,284.2c-0.5-0.7-0.9-1.3-1.4-1.8
		c-0.2-0.2-0.9-0.3-1.1-0.1c-0.7,0.6-1.3,1.4-1.8,2.2c-0.4,0.7-1.1,1.3-0.7,2.4C473.9,286,475.5,285.1,477.2,284.2z"/>
	<path class="st1" d="M439.7,306.9c0-0.4-0.2-0.8-0.1-1.2c0.3-1,0.4-2.1,1-3c3.1-5.4,7.3-9.8,12.6-13.1c0.7-0.4,1.5-0.8,2.3-1
		c0.6-0.2,1.3,0.1,1.4,1.2c-1.2,0.8-2.4,1.7-3.7,2.6c-1.3,1-2.6,2.1-3.8,3.3c-1.1,1.1-2.2,2.2-3.3,3.4c-1.1,1.3-2.1,2.6-3.1,4
		c-0.9,1.3-1.8,2.6-2.6,3.9C440.1,307,439.9,306.9,439.7,306.9z"/>
	<path class="st1" d="M442.9,318.2c-0.3-1.6,0.3-2.8,0.9-4c3.1-6.2,7.3-11.6,12.3-16.4c0.6-0.6,1.4-1,2.1-1.4
		c0.2-0.1,0.6,0.1,0.8,0.3c0.2,0.2,0.3,0.6,0.1,0.9c-0.2,0.5-0.6,0.9-1,1.2c-5,5.2-9.3,11-13.4,16.9
		C444.2,316.6,443.6,317.4,442.9,318.2z"/>
	<path class="st1" d="M460.3,303.9c1.1-2.7,3.1-4.6,5.2-6.3c0.3-0.2,0.8-0.3,1.2-0.4c0.2,0,0.4,0.1,0.5,0.2c0.1,0.1,0.1,0.4,0.1,0.6
		c0,0.2-0.2,0.4-0.3,0.5c-1.7,1.7-3.3,3.5-5,5.2C461.5,304.1,461.1,304.5,460.3,303.9z"/>
</g>
</svg>
