<?xml version="1.0" encoding="utf-8"?>
<!-- Generator: Adobe Illustrator 19.0.0, SVG Export Plug-In . SVG Version: 6.00 Build 0)  -->
<svg version="1.1" id="Layer_1" xmlns="http://www.w3.org/2000/svg" xmlns:xlink="http://www.w3.org/1999/xlink" x="0px" y="0px"
	 viewBox="0 0 960 560" style="enable-background:new 0 0 960 560;" xml:space="preserve">
<style type="text/css">
	.st0{fill-rule:evenodd;clip-rule:evenodd;fill:#692DBA;}
	.st1{fill-rule:evenodd;clip-rule:evenodd;fill:none;}
	.st2{fill-rule:evenodd;clip-rule:evenodd;fill:#B0B0B0;}
	.st3{fill-rule:evenodd;clip-rule:evenodd;fill:#E8E8E8;}
	.st4{fill-rule:evenodd;clip-rule:evenodd;fill:#112129;}
</style>
<g>
	<path class="st0" d="M471.2,323.5c-2.1,0.9-3.5-0.2-4.8-1.6c-1.8-2.1-3.5-4.3-5.1-6.4c-2-2.5-3.2-5.5-4.2-8.5
		c-0.5-1.4-1.1-2.8-1.6-4.1c-1-2.5-1-4.9,0.6-7.2c-0.4-0.7-0.9-0.4-1.4-0.2c-1.5,0.7-3.1,1.3-4.6,2.2c-2.9,1.8-5.8,3.5-8.3,5.8
		c-1.1,1-2.3,1.9-3.5,2.8c-0.3,0.2-0.7,0.3-1,0.2c-0.6,1.5-1.2,2.9-1.8,4.4c0.2,0.5,0.3,1,0.5,1.5c1.9,4.6,4.8,8.7,8.3,12.2
		c3.8,3.9,8.1,7.2,12.9,9.7c0.2,0.1,0.4,0.2,0.6,0.3c0.6-0.5,1.2-1,1.9-1.4c0.7-0.5,1.5-0.8,2.2-1.2c4-1.9,7.1-4.8,10.6-7.9
		C471.8,323.8,471.4,323.4,471.2,323.5z"/>
	<path class="st1" d="M500.7,286.4c1.4,1,2.6,0.4,3.7-0.2c2.1-1.1,3.7-2.8,5.3-4.5c0.6-0.7,1.2-1.4,2.2-2.6
		c-0.1,1.1-0.1,1.7-0.2,2.2c-0.8,3.9-2.9,7-6.2,9.3c-1.4,1-2.9,1.8-4.3,2.8c-0.5,0.3-1.2,0.6-1,1.6c1,0.6,2.1,0.3,3.2-0.1
		c2.5-1,4.6-2.5,6.5-4.4c0.6-0.6,1.2-1.1,2-2c0.1,3.3-1.2,5.5-3.4,7.2c-1.1,0.8-2.3,1.4-3.5,2.1c-0.8,0.5-1.7,0.9-2.5,1.4
		c-0.7,0.4-1,1.1-0.7,1.6c0.4,0.5,0.9,0.5,1.4,0.3c1.1-0.3,2.2-0.5,3.8-0.8c-0.6,0.8-0.8,1.2-1.2,1.6c-2.9,2.9-6.2,5.1-10.1,6.4
		c-1.5,0.5-2.9,1.2-4.4,1.7c-2.2,0.8-4.4,1.4-6.6,2.2c-2.8,1-5.5,2.2-8.2,3.2c-1.2-0.4-2.1-1.1-2.6-2.2c-0.4-0.8-0.9-1.4-1.3-2.1
		c-2-3.7-3.9-7.5-5.1-11.6c-0.9-3.1-0.5-5.8,1.9-8.1c2.9-3,5.1-6.4,6.8-10.3c1-2.3,2-4.7,3.2-6.9c2.4-4.6,5.7-8.4,10.3-10.9
		c0.5-0.2,1-0.4,1.4-0.6c0.2-0.1,0.4,0,0.8,0.1c0.3,1.3-0.4,2.4-0.7,3.6c-0.4,1.3-0.8,2.6-1.2,4c-0.3,1.2-0.6,2.4-0.9,3.7
		c3.4,1.7,7,1.8,10.6,1.4c1.8-0.2,3.5-1.1,4.8-2.3c1.1-1.1,2.9-1.8,3.3-3.9c-0.7-0.1-1.1-0.2-1.8-0.4c0.1-1.5,0.5-2.9,1.2-4.6
		c2.3,2.7,3.8,5.3,4.1,8.5c0.1,1.1,0,2.1-0.5,3.1c-1.7,3.4-4.3,6-7.3,8.3C502.5,284.6,501.3,285,500.7,286.4z"/>
	<path class="st2" d="M512.2,230.6c0.5-0.5,1.1-1,1.4-1.3c1.7,0,2.7,0.6,3.7,1.3c0.6,0.4,1.1,1,1.3,1.7c1,3.1,1.9,6.3,2.9,9.4
		c0.5,1.6,0.3,3.1-0.9,4.4c-1.2,1.2-2.2,2.6-3.3,3.9c-0.6,0.6-1.3,1.2-1.7,1.9c-1.4,2.3-3.6,3.3-6,3.8c-1.9,0.3-2.8,1.3-3.3,3
		c-0.8,2.5-1.6,5.1-2.3,7.6c-0.5,1.6-0.9,3.3-1.3,4.9c-0.2,0.8-0.7,1.3-1.5,1.5c-2.7,0.5-5.5,0.7-8.2-0.1c-0.2,0-0.3-0.3-0.6-0.5
		c0.5-2,1.1-4.2,1.6-6.3c0.7-2.6,1.3-5.1,1.9-7.7c0.2-0.8,0.3-1.7,0.5-2.5c0.3-1.7,0-3.1-1.5-4.2c-0.6-0.4-1.1-1.1-1.7-1.4
		c-1.5-0.8-1.9-2.1-2.1-3.7c-0.3-2.2-0.4-4.4-0.3-6.7c0.2-2.1,0.2-4.2,0.3-6.3c0-1,0.4-1.8,1.3-2.4c1-0.6,1.9-1.3,2.8-2
		c1.8-1.4,3.8-2.3,6-2.7c1.6-0.2,1.8-0.1,2.6,2.1c-1.6,1.3-3.4,2.7-5,4.1c-3.3,2.8-2.7,2.2-1.9,5.6c0.3,1.6,0.6,3.1,1,4.7
		c0.3,1.3,0.8,2.6,1.1,3.8c1.8,1,3.5,1.5,5.3,1.6c0.5,0,1.1,0,1.6,0.2c2.1,0.9,3.7-0.1,5.1-1.5c1.2-1.1,2.3-2.2,3.6-3.2
		c0.9-0.8,1.3-1.7,1-2.8c-0.2-1-0.6-2-0.9-3C514,235.6,513.2,233.4,512.2,230.6z"/>
	<path class="st3" d="M465.9,292c0,0.4,0,0.6-0.1,0.8c-1.6,3.2-1.1,6.4-0.1,9.6c1.4,4.6,3.8,8.7,6.4,12.7c0.8,1.2,2,2.1,3.1,3.1
		c1-0.2,1.8-0.4,3-0.6c-0.5,0.7-0.7,1.1-1,1.2c-1.8,0.8-3.7,1.7-5.5,2.4c-1.4,0.5-2.6,0.3-3.7-0.9c-2.6-2.8-5-5.7-6.7-9.2
		c-1.1-2.2-2.1-4.4-3.1-6.6c-0.3-0.8-0.6-1.6-0.8-2.4c-0.6-2.7,0.1-5,2.4-6.7c0.9-0.7,1.7-1.6,2.5-2.4c0.7-0.7,1.5-1.1,2.5-1.3
		C465.2,291.6,465.6,291.9,465.9,292z"/>
	<path class="st4" d="M505.7,229.4c-2.2,1.8-4.4,3.6-6.5,5.3c0.1,3.4,0.9,6.6,1.7,9.7c2.2,1.4,4.6,1.1,6.8,1.6
		c0.4,0.1,1-0.4,1.4-0.7c1.4-1.3,2.8-2.6,4.3-4c-0.3-1-0.6-2-0.9-3c-0.7-2-1.4-4-2-6c-0.5-1.7,0.2-3.2,1.4-4.3
		c1-0.9,2.3-1.1,3.5-0.5c1,0.5,2.1,1,3.1,1.6c0.9,0.6,1.5,1.4,1.9,2.5c0.8,2.5,1.7,5,2.5,7.5c0.4,1.1,0.6,2.2,1,3.4
		c0.4,1.4,0.2,2.8-0.7,3.9c-2.1,2.5-3.9,5.3-6.4,7.5c-1.2,1-2.4,2-3.9,2.6c-1.5,0.5-2.9,1.3-4,2.5c-0.6,0.6-1.1,1.3-1.1,2.4
		c0.5,0.7,1.2,1.6,1.8,2.4c2.3,2.9,4.1,5.9,4.1,9.8c0,0.9,0.4,1.9,0.5,2.8c0.1,1.5,0.5,3,0.2,4.4c-0.4,2.2-0.4,4.4-0.1,6.6
		c0.5,3.7-0.3,7-3,9.6c-0.7,0.6-0.9,1.4-1.1,2.2c-0.4,1.6-1.3,2.9-2.4,4.1c-3.1,3.4-7,5.8-11.1,7.8c-0.4,0.2-0.8,0.4-1.2,0.4
		c-4.2,0.6-8.1,2.5-12.1,3.7c-0.4,0.1-0.8,0.3-1.2,0.4c-0.8,0.3-1.4,0.8-1.6,1.8c-0.1,0.6-0.4,1.2-0.6,1.8c-0.2,0.7-0.6,1.4-1.4,1.6
		c-1.5,0.6-2.4,1.8-3,3.1c-0.7,1.5-1.8,2.6-3,3.6c-3.3,2.7-6.5,5.4-10.5,7.1c-1,0.4-1.8,1-2.8,1.5c-0.4,0.2-0.8,0.4-1.2,0.4
		c-0.3,0-0.8-0.3-1-0.6c-0.1-0.1,0-0.7,0.2-0.8c0.8-0.7,1.6-1.4,2.5-2c0.7-0.5,1.5-0.8,2.2-1.2c4-1.9,7.1-4.8,10.6-7.9
		c-0.6-0.3-1.1-0.6-1.3-0.5c-2.1,0.9-3.5-0.2-4.8-1.6c-1.8-2.1-3.5-4.3-5.1-6.4c-2-2.5-3.2-5.5-4.2-8.5c-0.5-1.4-1.1-2.8-1.6-4.1
		c-1-2.5-1-4.9,0.6-7.2c-0.4-0.7-0.9-0.4-1.4-0.2c-1.5,0.7-3.1,1.3-4.6,2.2c-2.9,1.8-5.8,3.5-8.3,5.8c-1.1,1-2.3,1.9-3.5,2.8
		c-0.6,0.4-1.4,0.2-1.7-0.2c-0.4-0.6-0.3-1.3,0.2-1.7c1.3-1.2,2.8-2.3,4.1-3.5c2.8-2.6,6.1-4.5,9.5-6.2c2.7-1.3,5.4-2.4,8.6-1.8
		c2.4-2,4.7-4.3,8.3-2.6c2.1-2.3,4-4.7,5.4-7.4c2.2-4.2,4.4-8.5,6.5-12.7c2.1-4.2,5.5-6.9,9.7-8.8c1.1-0.5,2.4-0.5,3.9-0.8
		c0.8-1.9,1.2-4.2,1.8-6.4c-0.6-1.2-1.7-1.7-2.6-2.4c-2.4-1.6-3.5-4-3.5-6.7c0-3.8,0.3-7.6,0.4-11.4c0-0.5,0.2-1,0.2-1.6
		c0.1-1.1,0.7-1.9,1.7-2.5c1.2-0.7,2.3-1.5,3.4-2.3c2.1-1.6,4.4-2.5,7-2.9c2.5-0.4,4.1,0.8,4.5,3.2
		C505.8,228,505.7,228.6,505.7,229.4z M500.7,286.4c0.7-1.4,1.9-1.7,2.8-2.4c3-2.3,5.6-4.9,7.3-8.3c0.5-1,0.6-2,0.5-3.1
		c-0.3-3.2-1.8-5.8-4.1-8.5c-0.7,1.7-1,3.1-1.2,4.6c0.7,0.1,1.2,0.2,1.8,0.4c-0.4,2.1-2.1,2.8-3.3,3.9c-1.3,1.3-2.9,2.1-4.8,2.3
		c-3.6,0.4-7.2,0.2-10.6-1.4c0.3-1.3,0.5-2.5,0.9-3.7c0.4-1.3,0.8-2.6,1.2-4c0.3-1.2,0.9-2.3,0.7-3.6c-0.4,0-0.6-0.1-0.8-0.1
		c-0.5,0.2-1,0.4-1.4,0.6c-4.7,2.5-7.9,6.3-10.3,10.9c-1.2,2.2-2.3,4.6-3.2,6.9c-1.6,3.9-3.8,7.3-6.8,10.3c-2.4,2.4-2.8,5-1.9,8.1
		c1.2,4.1,3.1,7.8,5.1,11.6c0.4,0.7,1,1.4,1.3,2.1c0.6,1.1,1.4,1.8,2.6,2.2c2.7-1.1,5.5-2.2,8.2-3.2c2.2-0.8,4.4-1.4,6.6-2.2
		c1.5-0.5,2.9-1.2,4.4-1.7c3.9-1.3,7.2-3.5,10.1-6.4c0.3-0.3,0.6-0.8,1.2-1.6c-1.6,0.3-2.7,0.6-3.8,0.8c-0.6,0.1-1,0.2-1.4-0.3
		c-0.3-0.4,0-1.1,0.7-1.6c0.8-0.5,1.7-0.9,2.5-1.4c1.2-0.7,2.5-1.3,3.5-2.1c2.2-1.7,3.5-3.9,3.4-7.2c-0.8,0.8-1.4,1.4-2,2
		c-1.9,1.9-4,3.5-6.5,4.4c-1.1,0.4-2.2,0.7-3.2,0.1c-0.1-1,0.5-1.3,1-1.6c1.4-0.9,2.9-1.8,4.3-2.8c3.3-2.3,5.4-5.4,6.2-9.3
		c0.1-0.5,0.1-1.1,0.2-2.2c-1,1.2-1.6,1.9-2.2,2.6c-1.6,1.7-3.2,3.4-5.3,4.5C503.3,286.8,502.1,287.3,500.7,286.4z M512.2,230.6
		c1,2.8,1.8,5,2.6,7.2c0.3,1,0.7,2,0.9,3c0.2,1.1-0.1,2.1-1,2.8c-1.2,1-2.4,2.1-3.6,3.2c-1.5,1.4-3,2.4-5.1,1.5
		c-0.5-0.2-1-0.2-1.6-0.2c-1.8-0.1-3.5-0.6-5.3-1.6c-0.4-1.2-0.8-2.5-1.1-3.8c-0.4-1.5-0.7-3.1-1-4.7c-0.8-3.4-1.4-2.8,1.9-5.6
		c1.7-1.4,3.4-2.8,5-4.1c-0.8-2.2-1-2.4-2.6-2.1c-2.3,0.3-4.2,1.3-6,2.7c-0.9,0.7-1.8,1.4-2.8,2c-0.9,0.6-1.3,1.3-1.3,2.4
		c-0.1,2.1-0.2,4.2-0.3,6.3c-0.2,2.2,0,4.4,0.3,6.7c0.2,1.6,0.7,2.8,2.1,3.7c0.6,0.3,1.1,1,1.7,1.4c1.5,1.1,1.8,2.5,1.5,4.2
		c-0.2,0.8-0.3,1.7-0.5,2.5c-0.6,2.6-1.3,5.1-1.9,7.7c-0.5,2.1-1.1,4.3-1.6,6.3c0.3,0.3,0.4,0.5,0.6,0.5c2.7,0.7,5.5,0.5,8.2,0.1
		c0.8-0.1,1.3-0.7,1.5-1.5c0.4-1.6,0.8-3.3,1.3-4.9c0.7-2.5,1.5-5.1,2.3-7.6c0.5-1.6,1.5-2.6,3.3-3c2.4-0.4,4.6-1.5,6-3.8
		c0.4-0.7,1.2-1.2,1.7-1.9c1.1-1.3,2.1-2.6,3.3-3.9c1.2-1.3,1.4-2.8,0.9-4.4c-1-3.1-1.9-6.3-2.9-9.4c-0.2-0.6-0.8-1.3-1.3-1.7
		c-0.9-0.7-1.9-1.3-3.7-1.3C513.2,229.6,512.7,230.1,512.2,230.6z M465.9,292c-0.3-0.1-0.7-0.3-1.1-0.3c-1,0.1-1.8,0.6-2.5,1.3
		c-0.8,0.8-1.6,1.7-2.5,2.4c-2.3,1.7-3,4-2.4,6.7c0.2,0.8,0.5,1.6,0.8,2.4c1,2.2,2.1,4.4,3.1,6.6c1.7,3.5,4,6.4,6.7,9.2
		c1.1,1.2,2.4,1.4,3.7,0.9c1.9-0.7,3.7-1.6,5.5-2.4c0.3-0.1,0.5-0.5,1-1.2c-1.3,0.3-2.1,0.4-3,0.6c-1-1-2.3-1.9-3.1-3.1
		c-2.5-4-4.9-8.1-6.4-12.7c-1-3.2-1.5-6.4,0.1-9.6C466,292.6,465.9,292.4,465.9,292z"/>
</g>
</svg>
