<?xml version="1.0" encoding="utf-8"?>
<!-- Generator: Adobe Illustrator 19.0.0, SVG Export Plug-In . SVG Version: 6.00 Build 0)  -->
<svg version="1.1" id="Layer_1" xmlns="http://www.w3.org/2000/svg" xmlns:xlink="http://www.w3.org/1999/xlink" x="0px" y="0px"
	 viewBox="0 0 960 560" style="enable-background:new 0 0 960 560;" xml:space="preserve">
<style type="text/css">
	.st0{fill-rule:evenodd;clip-rule:evenodd;fill:#002E45;}
	.st1{fill-rule:evenodd;clip-rule:evenodd;fill:none;}
	.st2{fill-rule:evenodd;clip-rule:evenodd;fill:#00C1FA;}
	.st3{fill-rule:evenodd;clip-rule:evenodd;fill:#E8E8E8;}
	.st4{fill:none;}
	.st5{fill-rule:evenodd;clip-rule:evenodd;fill:#112129;}
</style>
<g>
	<g>
		<path class="st0" d="M539,316.7c-3.5-2.6-7.2-4.8-11.1-6.8c-2.5-1.3-5-2.7-7.5-4.1c-0.8-0.5-1.7-0.9-2.7-1.4
			c-0.3,0.8-0.6,1.4-0.8,2.1c-1.2,5.3-3.5,10.2-6.1,14.9c-1.4,2.5-3.2,4.7-5.5,6.7c2.3,1.9,4.9,3.2,7.4,4.5c2.4,1.3,4.9,2.4,7.4,3.7
			c2.2,1.1,4.6,2,7,3.6c1.1-1,2.2-2,3.3-3.1c2.6-2.8,4.9-6,6.5-9.4c1.5-3.1,2.8-6.4,3.4-9.8C539.7,317.3,539.3,317,539,316.7z"/>
		<path class="st1" d="M499.6,322.6c-4.8-0.9-9.1-0.3-13.3,0.8c-2.3,0.6-4.7,1.3-7.1,1.7c-3.4,0.7-6.8,0.7-10.1-0.4
			c-2.9-0.9-5.5-2.2-7.3-4.8c-0.3-0.4-0.4-0.9-0.6-1.3c0.8-0.6,1.3-0.1,1.9,0c2.4,0.7,4.7,1.2,7.2,1.2c1.8,0,3.5-0.2,5-1.4
			c-0.7-0.9-1.5-0.5-2.2-0.5c-4.3-0.1-8.4-1.1-12.4-2.7c-3.9-1.5-6.4-4.4-7.6-8.4c-0.1-0.4-0.2-0.8-0.2-1.2c0-0.2,0-0.4,0.1-0.7
			c1.1,0,1.6,0.9,2.3,1.4c3.4,2.4,7.1,3.7,11.3,3.5c1.3,0,2.7-0.1,4-1.4c-0.8-0.1-1.3-0.1-1.8-0.2c-2.3-0.4-4.6-0.6-6.8-1.3
			c-5.9-1.7-9.8-5.7-11.6-11.6c-0.4-1.4-0.4-1.5-0.1-3.8c0.9-0.1,1.1,0.8,1.5,1.3c1.8,2.6,4.2,4.5,6.9,6c3.7,2,7.5,2.2,11.3,0.4
			c0.3-0.1,0.5-0.4,1-0.7c-0.6-0.2-0.9-0.3-1.3-0.3c-1,0-1.9,0.1-2.9,0.1c-5.5,0.1-9.8-2.5-12.9-6.8c-2.2-2.9-2.6-6.2-1.2-9.6
			c0.5-1.3,1.3-2.4,2.8-2.8c1,1,1,1,1.6,2.6c0,0.2,0,0.4-0.1,0.6c-1.2,3-0.7,4.6,2.1,5.9c4.3,2,8.6,1.9,12.9-0.1
			c1.7-0.8,2.3-2.3,2.2-4.4c-0.9,0.4-1.6,0.8-2.2,1c-0.2-0.1-0.4-0.2-0.4-0.2c-0.2-0.4-0.5-0.7-0.7-1.1c-1.1-2.1-2.3-4.3-3.4-6.5
			c1-0.9,2-1.3,3.2-1c3.1,0.7,6.2,1.3,9.3,2.2c2.4,0.7,4.4,2,6.3,3.6c1.8,1.6,3.6,3.2,5.3,5c2,2.1,3.8,4.3,5.7,6.4
			c1.4,1.5,2.9,2.8,4.7,3.8c1.5,0.9,3,1.9,4.5,2.9c0.7,0.5,1.3,1.1,1.9,1.7c0.8,0.8,1.1,1.8,0.7,2.9c-0.7,1.9-1.3,3.8-2.2,5.6
			c-1.2,2.6-2.7,5.1-4,7.6c-0.5,0.9-1,1.9-1.6,2.8C500.9,321.2,500.3,321.9,499.6,322.6z"/>
		<path class="st2" d="M454,264.9c-1.9,0.6-3.8,1.2-5.7,1.9c-3.6,1.3-7.3,0.9-10.9,0c-1.8-0.5-3.6-1.2-5.4-1.9c-2.5-1-4.6-2.7-6-5
			c-2.6-4-4.6-8.3-5.2-13.2c-0.4-3.4,0.2-6.5,1.6-9.6c1.8-3.9,4.5-7.2,7.8-9.9c3.4-2.8,7.5-4.4,12-4.4c7.5,0.1,13.9,2.8,18.7,8.6
			c4.4,5.4,6.2,11.7,4.6,18.7c-0.2,0.9-0.5,1.8-0.7,2.8c-0.9,4.9-4,8.1-8.1,10.4c-0.9,0.5-1.9,0.9-2.9,1.4
			C454,264.8,454,264.8,454,264.9z M451.1,261.7C451.1,261.7,451.2,261.7,451.1,261.7c1-0.4,2-0.8,2.9-1.3c5.2-2.9,8.2-7.2,8.3-13.3
			c0-2.3-0.1-4.7-0.5-6.9c-1-4.9-3.8-8.7-8.2-11.2c-6.5-3.6-13.2-3.5-19.7,0c-3.8,2-6.4,5.2-7.5,9.4c-0.5,1.9-1,3.9-1.1,5.9
			c-0.2,3,0,5.9,1.2,8.7c1.9,4.3,5.1,7.2,9.2,9.3c4.2,2.2,8.5,2.5,12.9,0.7C449.4,262.5,450.3,262.1,451.1,261.7z"/>
		<path class="st3" d="M501.6,325.6c2.8-5.9,5.8-11.7,8.3-17.7c1-2.3,1.8-4.7,1.5-7.4c2.6,0.8,3.7,2.5,3.2,4.8
			c-1.4,6.4-4.1,12.2-7.8,17.6c-0.8,1.2-1.8,2.3-3.1,3.1C502.9,326.5,502.7,326.4,501.6,325.6z"/>
		<path class="st3" d="M454.4,267.6c1.1-0.9,2.2-1.4,3.4-1.8c2.3,2.5,5.2,7.7,5.9,10.5c-0.7,0.4-1.4,0.8-2.1,1.1
			c-0.7,0.3-1.5,0.6-2.2,0.9C457.5,276.1,455.1,270.8,454.4,267.6z"/>
		<path class="st2" d="M469.6,286.1c-2.5,1.8-5,1.3-7.7,0.6c-0.6-1.5-1.2-2.9-1.7-4.4c-0.5-1.4-0.1-2.1,1.2-2.8
			c0.4-0.2,0.8-0.4,1.1-0.5c2.1-0.9,3.5-0.6,4.6,1.3C468.2,282.1,469.2,284,469.6,286.1z"/>
		<path class="st4" d="M449.8,230c-5.6-2.2-11-1.4-16.2,1.6c-0.7,0.4-1.4,1-1.8,1.7c-2.6,3.8-4.7,7.7-4.6,12.6
			c0.1,2.9,0.7,5.6,2.2,8.2c2,3.4,5,5.4,8.4,7c3,1.4,6.1,1.8,9.2,0.3c1-0.5,2-0.8,3-1.2c1.2-0.7,2.4-1.4,3.6-2
			c1.7-0.9,2.8-2.2,3.7-3.8c2.2-3.7,2.6-7.8,2.1-12C458.7,236.3,455.4,232.1,449.8,230z"/>
	</g>
	<path class="st5" d="M509.6,298.7c2.2-1.1,4-0.5,5.4,1.5c0.4,0.6,1.4,0.9,2.1,1.3c1.4,0.7,2.9,1.3,4.3,2.1c3.2,1.7,6.4,3.4,9.5,5.1
		c3,1.6,5.9,3.3,8.6,5.5c0.8,0.7,1.6,1.4,2.2,2.2c0.3,0.4,0.5,1-0.1,1.4c-0.3,0.2-0.8,0.2-1.1,0.1c-0.6-0.2-1.1-0.6-1.6-1
		c-3.5-2.6-7.2-4.8-11.1-6.8c-2.5-1.3-5-2.7-7.5-4.1c-0.8-0.5-1.7-0.9-2.7-1.4c-0.3,0.8-0.6,1.4-0.8,2.1c-1.2,5.3-3.5,10.2-6.1,14.9
		c-1.4,2.5-3.2,4.7-5.5,6.7c2.3,1.9,4.9,3.2,7.4,4.5c2.4,1.3,4.9,2.4,7.4,3.7c2.6,1.2,5.3,2.2,7.9,4.3c-0.8,0.1-1.2,0.3-1.5,0.2
		c-1.6-0.4-3.3-0.8-4.9-1.3c-5.4-1.9-10.5-4.5-15.4-7.6c-0.6-0.4-1.3-0.8-1.8-1.3c-0.9-1-1.9-1.8-3.3-2.2c-0.8-0.2-1.5-1.1-2.1-1.8
		c-0.4-0.5-0.6-1.1-0.8-1.7c-4.4-0.6-8.5-0.4-12.6,1.2c-3.1,1.2-6.2,2-9.5,2.2c-2.8,0.2-5.5-0.1-8.1-1.1c-4.7-1.8-8.4-4.5-9.2-9.9
		c-0.5-0.3-0.9-0.6-1.3-0.9c-4.5-2.8-6.3-7-6.3-12.1c0-1.4-0.2-2.7-0.9-3.9c-0.7-1.4-1.2-2.9-1.6-4.5c-0.6-2.1-0.5-4.2,0.8-6.1
		c0.5-0.8,0.6-1.5,0.5-2.4c-0.1-0.7-0.1-1.5,0-2.2c0.5-3.4,1.4-6.5,5.2-7.6c-0.2-2.2-1.7-6-3.4-8.6c-1.7-0.3-3.3,0.4-4.9,0.8
		c-3.7,0.9-7.3,0.6-10.9-0.5c-7.2-2-12-6.4-14.9-13.2c-0.9-2.3-1.8-4.5-2.3-6.9c-1.3-6.7,0.4-12.6,4.8-17.7c1.2-1.4,2.5-2.9,3.8-4.3
		c3.3-3.5,7.3-5.6,12.1-6.4c10.1-1.5,22.8,3.9,27.5,16.1c1.6,4.1,1.8,8.2,1,12.5c-0.4,2-0.8,3.9-1.2,5.9c-0.1,0.5-0.3,1-0.5,1.5
		c-0.2,0.4-0.5,0.7-0.6,1.1c-1.2,2.5-2.7,4.8-5.3,6.2c0.6,2.1,2,3.6,2.9,5.4c0.8,1.7,1.8,3.3,2.8,5.2c0.7-0.1,1.5,0.1,2.1-0.2
		c1.3-0.7,2.7-0.6,4-0.5c7.8,0.7,14.5,3.7,19.9,9.5c1.7,1.8,3.3,3.6,4.8,5.5c2,2.6,4.4,4.8,7.3,6.5
		C505.9,296.2,507.7,297.5,509.6,298.7z M499.6,322.6c0.6-0.8,1.3-1.4,1.8-2.2c0.6-0.9,1.1-1.8,1.6-2.8c1.4-2.5,2.8-5,4-7.6
		c0.9-1.8,1.5-3.7,2.2-5.6c0.4-1.1,0.2-2.1-0.7-2.9c-0.6-0.6-1.2-1.2-1.9-1.7c-1.5-1-3-2-4.5-2.9c-1.8-1-3.3-2.3-4.7-3.8
		c-1.9-2.1-3.7-4.3-5.7-6.4c-1.7-1.8-3.5-3.4-5.3-5c-1.9-1.6-3.9-3-6.3-3.6c-3.1-0.9-6.2-1.5-9.3-2.2c-1.2-0.3-2.3,0.1-3.2,1
		c1.2,2.2,2.3,4.4,3.4,6.5c0.2,0.4,0.4,0.7,0.7,1.1c0,0.1,0.2,0.1,0.4,0.2c0.6-0.3,1.3-0.6,2.2-1c0.1,2.1-0.5,3.6-2.2,4.4
		c-4.3,2-8.6,2.1-12.9,0.1c-2.8-1.3-3.3-2.9-2.1-5.9c0.1-0.2,0.1-0.4,0.1-0.6c-0.6-1.6-0.6-1.6-1.6-2.6c-1.5,0.4-2.2,1.5-2.8,2.8
		c-1.4,3.4-1,6.7,1.2,9.6c3.2,4.3,7.4,6.9,12.9,6.8c1,0,1.9-0.1,2.9-0.1c0.4,0,0.7,0.2,1.3,0.3c-0.5,0.4-0.7,0.6-1,0.7
		c-3.8,1.8-7.6,1.6-11.3-0.4c-2.7-1.5-5.1-3.4-6.9-6c-0.4-0.5-0.6-1.4-1.5-1.3c-0.3,2.2-0.4,2.4,0.1,3.8c1.9,5.9,5.7,9.9,11.6,11.6
		c2.2,0.7,4.6,0.9,6.8,1.3c0.5,0.1,1,0.1,1.8,0.2c-1.3,1.3-2.7,1.3-4,1.4c-4.2,0.1-7.9-1.1-11.3-3.5c-0.7-0.5-1.3-1.4-2.3-1.4
		c0,0.3-0.1,0.5-0.1,0.7c0,0.4,0.1,0.8,0.2,1.2c1.2,4,3.6,6.9,7.6,8.4c4,1.6,8.1,2.5,12.4,2.7c0.7,0,1.5-0.4,2.2,0.5
		c-1.5,1.2-3.2,1.4-5,1.4c-2.5,0-4.8-0.5-7.2-1.2c-0.6-0.2-1.1-0.6-1.9,0c0.2,0.4,0.4,0.9,0.6,1.3c1.8,2.6,4.4,3.9,7.3,4.8
		c3.3,1,6.7,1.1,10.1,0.4c2.4-0.5,4.7-1.1,7.1-1.7C490.6,322.3,494.8,321.7,499.6,322.6z M454,264.9c0-0.1,0-0.1-0.1-0.2
		c1-0.4,2-0.8,2.9-1.4c4.1-2.4,7.2-5.6,8.1-10.4c0.2-0.9,0.5-1.9,0.7-2.8c1.5-7-0.2-13.3-4.6-18.7c-4.8-5.8-11.2-8.6-18.7-8.6
		c-4.5,0-8.5,1.5-12,4.4c-3.3,2.7-6,6-7.8,9.9c-1.4,3.1-2,6.2-1.6,9.6c0.5,4.9,2.5,9.2,5.2,13.2c1.5,2.3,3.5,3.9,6,5
		c1.8,0.7,3.5,1.4,5.4,1.9c3.6,1,7.3,1.4,10.9,0C450.2,266.1,452.1,265.5,454,264.9z M501.6,325.6c1.1,0.8,1.4,0.8,2.1,0.4
		c1.3-0.7,2.3-1.8,3.1-3.1c3.6-5.4,6.4-11.2,7.8-17.6c0.5-2.3-0.6-4-3.2-4.8c0.2,2.6-0.6,5-1.5,7.4
		C507.4,314,504.4,319.7,501.6,325.6z M454.4,267.6c0.7,3.2,3.1,8.5,4.9,10.8c0.7-0.3,1.5-0.5,2.2-0.9c0.7-0.3,1.4-0.8,2.1-1.1
		c-0.7-2.9-3.6-8.1-5.9-10.5C456.6,266.2,455.5,266.7,454.4,267.6z M469.6,286.1c-0.4-2.1-1.4-4-2.5-5.8c-1.1-1.9-2.5-2.2-4.6-1.3
		c-0.4,0.2-0.8,0.3-1.1,0.5c-1.3,0.7-1.7,1.4-1.2,2.8c0.5,1.5,1.1,2.9,1.7,4.4C464.6,287.4,467.2,287.9,469.6,286.1z"/>
	<path class="st5" d="M451.1,261.7c-0.9,0.4-1.7,0.8-2.6,1.2c-4.4,1.8-8.7,1.5-12.9-0.7c-4.1-2.1-7.3-5-9.2-9.3
		c-1.2-2.8-1.4-5.8-1.2-8.7c0.1-2,0.6-4,1.1-5.9c1.1-4.2,3.7-7.4,7.5-9.4c6.5-3.4,13.2-3.6,19.7,0c4.4,2.4,7.1,6.3,8.2,11.2
		c0.5,2.2,0.6,4.6,0.5,6.9c-0.1,6.1-3.1,10.4-8.3,13.3C453.1,260.9,452.1,261.3,451.1,261.7C451.2,261.7,451.1,261.7,451.1,261.7z
		 M450,260c1.2-0.7,2.4-1.4,3.6-2c1.7-0.9,2.8-2.2,3.7-3.8c2.2-3.7,2.6-7.8,2.1-12c-0.7-6-4.1-10.2-9.6-12.4
		c-5.6-2.2-11-1.4-16.2,1.6c-0.7,0.4-1.4,1-1.8,1.7c-2.6,3.8-4.7,7.7-4.6,12.6c0.1,2.9,0.7,5.6,2.2,8.2c2,3.4,5,5.4,8.4,7
		c3,1.4,6.1,1.8,9.2,0.3C448,260.8,449,260.5,450,260z"/>
	<path class="st5" d="M446.1,251c-0.2-0.5-0.7-1.1-0.6-1.6c0.7-4.1,1.5-8.1,2.3-12.1c0.1-0.3,0.3-0.6,0.5-0.8
		c0.1-0.1,0.4-0.2,0.5-0.1c0.2,0,0.4,0.3,0.4,0.4c0,0.6-0.1,1.3-0.2,1.9c-0.6,3.5-1.1,7.1-1.7,10.6C447.3,250,447.2,250.7,446.1,251
		z"/>
	<path class="st5" d="M452.3,246c-0.9-2.6-0.7-3.8,0.7-6.5c0.2,0.1,0.5,0.1,0.5,0.2C453.8,241.7,453.4,243.6,452.3,246z"/>
</g>
</svg>
